<svg width="238" height="274" viewBox="0 0 238 274" fill="none" xmlns="http://www.w3.org/2000/svg">
<g clip-path="url(#clip0)">
<path d="M199.7 134.8L164.2 73.6001L122.9 2.0001C121.4 -0.699902 117.5 -0.699902 116 2.0001L77.7 68.1001L39.1 134.8L0.499976 200.5C-0.200024 201.7 -0.200024 203.3 0.499976 204.5L38.7 271.1C40.2 273.8 44.1 273.8 45.6 271.1L87 199.6L115.8 149.8C117.3 147.1 121.2 147.1 122.7 149.8L154.7 205.1L192.9 271.1C194.5 273.8 198.3 273.8 199.8 271.1L237.2 204.5C237.9 203.3 237.9 201.8 237.2 200.6L199.7 134.8ZM225.8 199.7H167.5C166.1 199.7 165.2 198.2 165.9 197L195.1 146.6C195.8 145.4 197.5 145.4 198.2 146.6L227.4 197C228 198.2 227.2 199.7 225.8 199.7ZM117.8 126.7L88.7 76.3001C88 75.1001 88.9 73.6001 90.3 73.6001H148.6C150 73.6001 150.9 75.1001 150.2 76.3001L121 126.7C120.3 127.9 118.5 127.9 117.8 126.7ZM159.6 79.9001L188.8 130.3C189.5 131.5 188.6 133 187.2 133H128.9C127.5 133 126.6 131.5 127.3 130.3L156.5 79.9001C157.1 78.7001 158.9 78.7001 159.6 79.9001ZM121 13.2001L150.2 63.6001C150.9 64.8001 150 66.3001 148.6 66.3001H90.2C88.8 66.3001 87.9 64.8001 88.6 63.6001L117.8 13.2001C118.5 12.0001 120.3 12.0001 121 13.2001ZM82.4 79.9001L111.6 130.3C112.3 131.5 111.4 133 110 133H51.7C50.3 133 49.4 131.5 50.1 130.3L79.3 79.9001C79.9 78.7001 81.7 78.7001 82.4 79.9001ZM43.8 146.6L73 197C73.7 198.2 72.8 199.7 71.4 199.7H13.1C11.7 199.7 10.8 198.2 11.5 197L40.7 146.6C41.3 145.4 43.1 145.4 43.8 146.6ZM40.6 260L11.4 209.6C10.7 208.4 11.6 206.9 13 206.9H71.3C72.7 206.9 73.6 208.4 72.9 209.6L43.8 260C43.1 261.2 41.3 261.2 40.6 260ZM79.2 193.3L50.1 143C49.4 141.8 50.3 140.3 51.7 140.3H110C111.4 140.3 112.3 141.8 111.6 143L82.4 193.4C81.7 194.5 79.9 194.5 79.2 193.3ZM188.7 143L159.5 193.4C158.8 194.6 157.1 194.6 156.4 193.4L127.3 143C126.6 141.8 127.5 140.3 128.9 140.3H187.2C188.6 140.2 189.4 141.8 188.7 143ZM195 260L165.8 209.6C165.1 208.4 166 206.9 167.4 206.9H225.7C227.1 206.9 228 208.4 227.3 209.6L198.2 260C197.5 261.2 195.7 261.2 195 260Z" fill="white"/>
<path d="M79.3 272.7H155.2C158.3 272.7 160.2 269.4 158.7 266.7L120.8 201.1C119.3 198.4 115.4 198.4 113.9 201.1L75.9 266.7C74.3 269.4 76.3 272.7 79.3 272.7ZM86.6 262.7L115.8 212.3C116.5 211.1 118.2 211.1 118.9 212.3L148.1 262.7C148.8 263.9 147.9 265.4 146.5 265.4H88.1C86.7 265.5 85.9 263.9 86.6 262.7Z" fill="white"/>
</g>
<defs>
<clipPath id="clip0">
<rect width="237.9" height="273.2" fill="white"/>
</clipPath>
</defs>
</svg>
