<svg width="458" height="138" viewBox="0 0 458 138" fill="none" xmlns="http://www.w3.org/2000/svg">
<g clip-path="url(#clip0_23:2)">
<path d="M174.1 94.4H173.9C170.7 98.7 164.8 101.5 158.3 101.5C142.7 101.5 133.7 88.8 133.7 76.5C133.7 64.8 143.4 51.5 158.8 51.5C165.9 51.5 171.2 54.5 173.9 58.6H174.1V52.8H184.3V100.2H174.1V94.4ZM159.6 91.8C167.6 91.8 174.5 84.9 174.5 76.4C174.5 67.9 167.6 61 159.6 61C151.4 61 144.5 67.9 144.5 76.4C144.5 85 151.4 91.8 159.6 91.8Z" fill="white"/>
<path d="M207.6 38.5999V80.9999C207.6 86.4999 208.8 88.3999 211.8 90.1999L217.3 93.2999L212.8 101.3C202.3 96.2999 197.4 92.6999 197.4 82.7999V38.5999H207.6Z" fill="white"/>
<path d="M218.4 52.6999H224.2V40.1999L234.4 37.3999V52.7999H242.5V62.3999H234.4V81.0999C234.4 86.1999 235.6 88.4999 238.6 90.2999L244.1 93.3999L239.6 101.4C229.1 96.3999 224.2 92.7999 224.2 82.8999V62.2999H218.4V52.6999Z" fill="white"/>
<path d="M274.3 51.5C290.9 51.5 300.5 63.9 300.5 76.5C300.5 89 290.9 101.5 274.3 101.5C257.7 101.5 248.1 89.1 248.1 76.5C248.1 63.9 257.7 51.5 274.3 51.5ZM274.3 91.8C283.2 91.8 289.7 84.9 289.7 76.4C289.7 67.9 283.2 61 274.3 61C265.4 61 258.9 67.9 258.9 76.4C258.9 85 265.4 91.8 274.3 91.8Z" fill="white"/>
<path d="M309.9 52.6999H319.5V57.8999H319.7C321.4 53.9999 324.9 51.3999 329 51.3999C331.3 51.3999 333.2 51.9999 334.6 52.8999L330.9 62.9999C329.9 62.1999 328.1 61.5999 327.1 61.5999C323.4 61.5999 320 64.3999 320 68.7999V100.1H309.8V52.6999H309.9Z" fill="white"/>
<path d="M346 37.3999C349.1 37.3999 351.7 39.8999 351.7 43.0999C351.7 46.2999 349.2 48.7999 346 48.7999C342.9 48.7999 340.3 46.2999 340.3 43.0999C340.3 39.8999 342.9 37.3999 346 37.3999ZM340.9 52.6999H351.1V100.1H340.9V52.6999Z" fill="white"/>
<path d="M366.7 86.1C370.3 90 376.3 93.1 381.6 93.1C387.5 93.1 391 89.8 391 87.1C391 84 388.6 82.3 384.8 81.6L379 80.5C365.7 78.1 362 73.7 362 67C362 59 368.8 51.5 380.6 51.5C387.2 51.5 392.9 53.5 399.4 58.1L393.6 65.3C388.6 61.1 384.2 60 380.9 60C376.5 60 372.2 62.2 372.2 66C372.2 68.8 374.5 70.3 378.4 71L388.7 73C397.1 74.6 401.2 78.6 401.2 85.6C401.2 92.6 395.5 101.6 381.1 101.6C373.1 101.6 366.2 98.8 359.7 93.3L366.7 86.1Z" fill="white"/>
<path d="M455 89.9C449.3 97.1 441.5 101.4 433 101.5C416.4 101.5 406.8 89.1 406.8 76.5C406.8 64 416.4 51.5 433 51.5C442.9 51.5 457.6 59.6 457.6 78.1V80H418.2C418.8 87.2 425.5 92.4 432.7 92.4C438.2 92.4 442.9 89.8 446.4 85.1L455 89.9ZM445.6 71.6C443.4 64.4 438.1 60.5 431.6 60.5C425.1 60.5 419.8 64.5 418.2 71.6H445.6Z" fill="white"/>
<path d="M100.7 67.9999L82.8 37.0999L62 0.999902C61.2 -0.300098 59.3 -0.300098 58.5 0.999902L39.2 34.2999L19.7 67.9999L0.3 101.1C-0.1 101.7 -0.1 102.5 0.3 103.1L19.6 136.7C20.4 138 22.3 138.1 23.1 136.7L44 100.6L58.5 75.4999C59.3 74.1999 61.2 74.1999 62 75.4999L78.1 103.4L97.4 136.7C98.2 138.1 100.1 138 100.9 136.7L119.8 103.1C120.1 102.5 120.1 101.7 119.8 101.1L100.7 67.9999ZM113.8 100.7H84.4C83.7 100.7 83.3 99.8999 83.6 99.2999L98.3 73.8999C98.7 73.2999 99.5 73.2999 99.9 73.8999L114.6 99.2999C115 99.8999 114.5 100.7 113.8 100.7ZM59.4 63.8999L44.7 38.4999C44.3 37.8999 44.8 37.0999 45.5 37.0999H74.9C75.6 37.0999 76 37.8999 75.7 38.4999L61 63.8999C60.7 64.4999 59.8 64.4999 59.4 63.8999ZM80.5 40.2999L95.2 65.6999C95.6 66.2999 95.1 67.0999 94.4 67.0999H65C64.3 67.0999 63.9 66.2999 64.2 65.6999L78.9 40.2999C79.2 39.6999 80.1 39.6999 80.5 40.2999ZM61 6.6999L75.7 32.0999C76.1 32.6999 75.6 33.4999 74.9 33.4999H45.5C44.8 33.4999 44.4 32.6999 44.7 32.0999L59.4 6.6999C59.8 6.0999 60.7 6.0999 61 6.6999ZM41.5 40.2999L56.2 65.6999C56.6 66.2999 56.1 67.0999 55.4 67.0999H26C25.3 67.0999 24.9 66.2999 25.2 65.6999L40 40.2999C40.3 39.6999 41.2 39.6999 41.5 40.2999ZM22.1 73.8999L36.8 99.2999C37.2 99.8999 36.7 100.7 36 100.7H6.6C5.9 100.7 5.5 99.8999 5.8 99.2999L20.5 73.8999C20.8 73.2999 21.7 73.2999 22.1 73.8999ZM20.5 131.1L5.8 105.7C5.4 105.1 5.9 104.3 6.6 104.3H36C36.7 104.3 37.1 105.1 36.8 105.7L22.1 131.1C21.7 131.7 20.8 131.7 20.5 131.1ZM40 97.4999L25.3 72.0999C24.9 71.4999 25.4 70.6999 26.1 70.6999H55.5C56.2 70.6999 56.6 71.4999 56.3 72.0999L41.5 97.4999C41.2 98.0999 40.3 98.0999 40 97.4999ZM95.2 72.0999L80.5 97.4999C80.1 98.0999 79.3 98.0999 78.9 97.4999L64.2 72.0999C63.8 71.4999 64.3 70.6999 65 70.6999H94.4C95.1 70.6999 95.5 71.4999 95.2 72.0999ZM98.4 131.1L83.7 105.7C83.3 105.1 83.8 104.3 84.5 104.3H113.9C114.6 104.3 115 105.1 114.7 105.7L100 131.1C99.6 131.7 98.7 131.7 98.4 131.1Z" fill="white"/>
<path d="M40 137.5H78.3C79.9 137.5 80.8 135.8 80 134.5L60.9 101.4C60.1 100.1 58.2 100.1 57.4 101.4L38.3 134.5C37.5 135.8 38.5 137.5 40 137.5ZM43.7 132.5L58.4 107.1C58.8 106.5 59.6 106.5 60 107.1L74.7 132.5C75.1 133.1 74.6 133.9 73.9 133.9H44.4C43.7 133.9 43.3 133.1 43.7 132.5Z" fill="white"/>
</g>
<defs>
<clipPath id="clip0_23:2">
<rect width="457.6" height="137.8" fill="white"/>
</clipPath>
</defs>
</svg>
